<svg width="96" height="56" viewBox="0 0 96 56" fill="none" xmlns="http://www.w3.org/2000/svg">
<rect x="0.5" y="0.5" width="95" height="55" rx="4.5" fill="#0A0B0B"/>
<rect x="0.5" y="0.5" width="95" height="55" rx="4.5" stroke="#9747FF" stroke-dasharray="10 5"/>
<path d="M32.5 19C35.5376 19 38 21.5 38 25C38 32 30.5 36 28 37.5C25.5 36 18 32 18 25C18 21.5 20.5 19 23.5 19C25.36 19 27 20 28 21C29 20 30.64 19 32.5 19ZM28.9339 34.6038C29.8155 34.0485 30.61 33.4955 31.3549 32.9029C34.3337 30.533 36 27.9435 36 25C36 22.6408 34.463 21 32.5 21C31.4241 21 30.2593 21.5691 29.4142 22.4142L28 23.8284L26.5858 22.4142C25.7407 21.5691 24.5759 21 23.5 21C21.5591 21 20 22.6565 20 25C20 27.9435 21.6663 30.533 24.6451 32.9029C25.39 33.4955 26.1845 34.0485 27.0661 34.6038C27.3646 34.7919 27.6611 34.9729 28 35.1752C28.3389 34.9729 28.6354 34.7919 28.9339 34.6038Z" fill="white"/>
<path d="M72.5 19C75.5376 19 78 21.5 78 25C78 32 70.5 36 68 37.5C65.5 36 58 32 58 25C58 21.5 60.5 19 63.5 19C65.36 19 67 20 68 21C69 20 70.64 19 72.5 19Z" fill="#B4A9FF"/>
</svg>
