<svg width="96" height="56" viewBox="0 0 96 56" fill="none" xmlns="http://www.w3.org/2000/svg">
<rect x="0.5" y="0.5" width="95" height="55" rx="4.5" stroke="#9747FF" stroke-dasharray="10 5"/>
<path d="M20 38C20 33.5817 23.5817 30 28 30C32.4183 30 36 33.5817 36 38H34C34 34.6863 31.3137 32 28 32C24.6863 32 22 34.6863 22 38H20ZM28 29C24.685 29 22 26.315 22 23C22 19.685 24.685 17 28 17C31.315 17 34 19.685 34 23C34 26.315 31.315 29 28 29ZM28 27C30.21 27 32 25.21 32 23C32 20.79 30.21 19 28 19C25.79 19 24 20.79 24 23C24 25.21 25.79 27 28 27Z" fill="white"/>
<path d="M60 38C60 33.5817 63.5817 30 68 30C72.4183 30 76 33.5817 76 38H60ZM68 29C64.685 29 62 26.315 62 23C62 19.685 64.685 17 68 17C71.315 17 74 19.685 74 23C74 26.315 71.315 29 68 29Z" fill="white"/>
</svg>
